<svg xmlns="http://www.w3.org/2000/svg" viewBox="0 0 1000.11 874"><defs><style>.cls-1{fill:none;}</style></defs><title>DD_Icon</title><g id="Layer_2" data-name="Layer 2"><g id="Layer_1-2" data-name="Layer 1"><polygon class="cls-1" points="214.66 721 273.27 721 393.53 152 335.39 152 214.66 721"/><path class="cls-1" d="M633.95,668a35,35,0,0,1-34.89-34.89V599.89A35,35,0,0,1,633.95,565h2.57a47.76,47.76,0,0,1,.77-11.52c4.85-25,28.35-42,54.13-40.57A53.16,53.16,0,0,1,740.62,496c19.76,3.52,34.77,17.34,40.22,34.59a54.12,54.12,0,0,1,14.8.56,52.12,52.12,0,0,1,29.42,16.06V279.77c0-70.28-57.5-127.77-127.77-127.77H573.66a126.27,126.27,0,0,0-47.44,9.24v.06A127.58,127.58,0,0,0,499.63,176l-.08,0a127.82,127.82,0,0,0-53.49,103.78v313.4A126.77,126.77,0,0,0,449.65,623h.1c11.94,49.33,52.59,87.76,103.12,96.23l.53,0A126.85,126.85,0,0,0,573.92,721H697.77a127.82,127.82,0,0,0,103.42-53Z"/><path d="M788.66,528.22a54.09,54.09,0,0,0-14.79-.56c-5.44-17.23-20.44-31-40.18-34.56A53.13,53.13,0,0,0,684.52,510c-25.76-1.48-49.24,15.59-54.09,40.53a47.7,47.7,0,0,0-.77,11.51h-2.71a35,35,0,0,0-34.89,34.89v33.22A35,35,0,0,0,626.95,665H793.74a126.78,126.78,0,0,0,24.32-74.68V544.26A52.08,52.08,0,0,0,788.66,528.22Z"/><path d="M911.94,85.49Q823.75,0,662.35,0H425.62V.06c-1.39,0-2.75-.06-4.15-.06H184.72L0,874H510.51Q661.16,874,772,809.44t169.48-188q58.58-123.44,58.59-290.84Q1000.11,171,911.94,85.49ZM273.27,721H214.65L335.39,152h58.14ZM825.06,547.18v46.1A128.09,128.09,0,0,1,697.45,721H573.92a126.85,126.85,0,0,1-20.52-1.82l-.53,0c-50.53-8.48-91.18-46.91-103.12-96.23h-.1a126.77,126.77,0,0,1-3.59-29.86V279.72A127.79,127.79,0,0,1,499.55,176l.08,0a127.58,127.58,0,0,1,26.58-14.7v-.06A126.29,126.29,0,0,1,573.66,152H697.28c70.28,0,127.77,57.5,127.77,127.77Z"/><path d="M452.06,286V433h367V286c0-70.67-55.49-128-123.94-128H576C507.55,158,452.06,215.29,452.06,286ZM702.94,410H568.16a9,9,0,0,1,0-18H702.94a9,9,0,0,1,0,18Z"/></g></g></svg>