<svg id="Layer_1" data-name="Layer 1" xmlns="http://www.w3.org/2000/svg" viewBox="0 0 1000.11 1000.11"><defs><style>.cls-1{fill:none;}</style></defs><title>Icon Logo</title><polygon class="cls-1" points="214.65 784.05 273.27 784.05 393.53 215.06 335.39 215.06 214.65 784.05"/><path class="cls-1" d="M633.94,731.06a35,35,0,0,1-34.89-34.89V662.94a35,35,0,0,1,34.89-34.89h2.57a47.76,47.76,0,0,1,.77-11.52c4.85-25,28.35-42,54.13-40.57a53.16,53.16,0,0,1,49.21-16.88c19.76,3.52,34.77,17.34,40.22,34.59a54.12,54.12,0,0,1,14.8.56,52.12,52.12,0,0,1,29.42,16.06V342.83c0-70.28-57.5-127.77-127.77-127.77H573.66a126.27,126.27,0,0,0-47.44,9.24v.06a127.58,127.58,0,0,0-26.58,14.7l-.08,0a127.82,127.82,0,0,0-53.49,103.78V656.2a126.77,126.77,0,0,0,3.59,29.86h.1c11.94,49.33,52.59,87.76,103.12,96.23l.53,0a126.85,126.85,0,0,0,20.52,1.82H697.77a127.82,127.82,0,0,0,103.42-53Z"/><path d="M788.66,591.27a54.09,54.09,0,0,0-14.79-.56c-5.44-17.23-20.44-31-40.18-34.56A53.13,53.13,0,0,0,684.52,573c-25.76-1.48-49.24,15.59-54.09,40.53a47.7,47.7,0,0,0-.77,11.51h-2.71a35,35,0,0,0-34.89,34.89v33.22a35,35,0,0,0,34.89,34.89H793.73a126.78,126.78,0,0,0,24.32-74.68V607.31A52.08,52.08,0,0,0,788.66,591.27Z"/><path d="M911.93,148.54Q823.75,63.06,662.35,63.06H425.62v.06c-1.39,0-2.75-.06-4.15-.06H184.72L0,937.06H510.5q150.65,0,261.54-64.56t169.48-188q58.58-123.44,58.59-290.84Q1000.11,234,911.93,148.54ZM273.27,784.06H214.65l120.73-569h58.14ZM825.06,610.24v46.1A128.09,128.09,0,0,1,697.45,784.06H573.91a126.85,126.85,0,0,1-20.52-1.82l-.53,0c-50.53-8.48-91.18-46.91-103.12-96.23h-.1a126.77,126.77,0,0,1-3.59-29.86V342.77A127.79,127.79,0,0,1,499.55,239l.08,0a127.58,127.58,0,0,1,26.58-14.7v-.06a126.29,126.29,0,0,1,47.44-9.24H697.28c70.28,0,127.77,57.5,127.77,127.77Z"/><path d="M452.06,349v147h367V349c0-70.67-55.49-128-123.94-128H576C507.54,221.06,452.06,278.34,452.06,349Zm250.89,124H568.16a9,9,0,0,1,0-18H702.94a9,9,0,0,1,0,18Z"/></svg>