<?xml version="1.0" ?><svg viewBox="0 0 24 24" xmlns="http://www.w3.org/2000/svg"><title/><g id="Codepen"><g data-name="&lt;Group&gt;" id="_Group_"><path d="M12,.5h0a3.3,3.3,0,0,1,1.83.55l8.78,5.85a2,2,0,0,1,.89,1.66v6.86a2,2,0,0,1-.89,1.66l-8.78,5.85A3.3,3.3,0,0,1,12,23.5h0a3.3,3.3,0,0,1-1.83-.55L1.39,17.09A2,2,0,0,1,.5,15.43V8.57a2,2,0,0,1,.89-1.66l8.78-5.85A3.3,3.3,0,0,1,12,.5Z" data-name="&lt;Path&gt;" id="_Path_" style="fill:none;stroke:#303c42;stroke-linecap:round;stroke-linejoin:round"/><polygon data-name="&lt;Path&gt;" id="_Path_2" points="10.5 3.5 10.5 8.5 7.5 10.5 3.5 8 10.5 3.5" style="fill:none;stroke:#303c42;stroke-linecap:round;stroke-linejoin:round"/><polygon data-name="&lt;Path&gt;" id="_Path_3" points="13.5 3.5 13.5 8.5 16.5 10.5 20.5 8 13.5 3.5" style="fill:none;stroke:#303c42;stroke-linecap:round;stroke-linejoin:round"/><polygon data-name="&lt;Path&gt;" id="_Path_4" points="13.5 20.5 13.5 15.5 16.5 13.5 20.5 16 13.5 20.5" style="fill:none;stroke:#303c42;stroke-linecap:round;stroke-linejoin:round"/><polygon data-name="&lt;Path&gt;" id="_Path_5" points="10.5 20.5 10.5 15.5 7.5 13.5 3.5 16 10.5 20.5" style="fill:none;stroke:#303c42;stroke-linecap:round;stroke-linejoin:round"/><polygon data-name="&lt;Path&gt;" id="_Path_6" points="2.5 10.5 5 12 2.5 13.5 2.5 10.5" style="fill:none;stroke:#303c42;stroke-linecap:round;stroke-linejoin:round"/><polygon data-name="&lt;Path&gt;" id="_Path_7" points="21.5 13.5 19 12 21.5 10.5 21.5 13.5" style="fill:none;stroke:#303c42;stroke-linecap:round;stroke-linejoin:round"/><polygon data-name="&lt;Path&gt;" id="_Path_8" points="12 10 9 12 12 14 15 12 12 10" style="fill:none;stroke:#303c42;stroke-linecap:round;stroke-linejoin:round"/></g></g></svg>