<?xml version="1.0" ?><!DOCTYPE svg  PUBLIC '-//W3C//DTD SVG 1.1//EN'  'http://www.w3.org/Graphics/SVG/1.1/DTD/svg11.dtd'><svg enable-background="new -0.824 -0.825 141.732 141.732" height="141.732px" id="Livello_1" version="1.1" viewBox="-0.824 -0.825 141.732 141.732" width="141.732px" xml:space="preserve" xmlns="http://www.w3.org/2000/svg" xmlns:xlink="http://www.w3.org/1999/xlink"><g id="Livello_39"><path d="M134.631,72.609c-0.616,15.764-6.873,30.078-16.813,40.979c-5.521-5.15-11.873-9.42-18.836-12.583   c1.959-8.614,3.125-18.228,3.295-28.396H134.631z M134.631,67.473h-32.354c-0.198-12.014-1.793-23.256-4.438-32.988   c6.312-2.73,12.131-6.369,17.312-10.74C126.629,34.93,133.961,50.344,134.631,67.473 M111.099,20.107   c-4.479,3.686-9.457,6.781-14.824,9.168c-3.139-9.508-7.348-17.23-12.24-22.355C94.146,9.152,103.373,13.748,111.099,20.107    M91.504,31.17c-5.946,2.094-12.293,3.344-18.894,3.602V5.693C80.323,7.455,87.086,17.064,91.504,31.17 M72.61,40.171   c7.109-0.255,13.947-1.575,20.363-3.798c2.314,9.121,3.719,19.734,3.901,31.1H72.61V40.171z M72.61,72.609h24.268   c-0.152,9.459-1.15,18.395-2.816,26.385c-6.729-2.457-13.938-3.914-21.449-4.186V72.609H72.61z M72.61,100.209   c7.092,0.277,13.888,1.699,20.213,4.08c-4.319,16.607-11.686,28.152-20.213,30.1V100.209z M84.032,133.162   c5.642-5.907,10.373-15.27,13.604-26.832c6.029,2.852,11.545,6.605,16.375,11.092C105.739,125.102,95.453,130.643,84.032,133.162    M67.473,134.389c-8.527-1.947-15.894-13.492-20.213-30.1c6.326-2.381,13.122-3.803,20.213-4.08V134.389z M67.473,94.809   c-7.513,0.271-14.722,1.729-21.449,4.188c-1.666-7.99-2.663-16.929-2.817-26.388h24.267L67.473,94.809L67.473,94.809z    M67.473,67.473H43.206c0.185-11.363,1.586-21.975,3.903-31.096c6.416,2.221,13.255,3.537,20.363,3.794L67.473,67.473   L67.473,67.473z M67.473,34.771c-6.6-0.258-12.944-1.508-18.893-3.602C52.998,17.064,59.76,7.455,67.473,5.693V34.771z    M56.053,6.92c-4.895,5.125-9.104,12.85-12.242,22.355c-5.367-2.387-10.347-5.482-14.823-9.168   C36.711,13.748,45.938,9.152,56.053,6.92 M24.93,23.748c5.185,4.369,11.011,8.002,17.318,10.732   c-2.646,9.733-4.239,20.977-4.438,32.992H5.453C6.123,50.346,13.453,34.934,24.93,23.748 M5.453,72.609H37.81   c0.169,10.168,1.335,19.781,3.294,28.396c-6.963,3.163-13.316,7.433-18.838,12.583C12.326,102.688,6.07,88.373,5.453,72.609    M26.072,117.422c4.83-4.486,10.346-8.24,16.375-11.092c3.232,11.562,7.962,20.925,13.604,26.832   C44.631,130.643,34.344,125.102,26.072,117.422 M140.032,72.609h0.052v-5.137h-0.052C138.71,30.833,109.25,1.372,72.61,0.05V0   h-5.138v0.051C30.834,1.373,1.373,30.834,0.052,67.473H0v5.136h0.052c0.622,17.261,7.487,32.929,18.408,44.812   c-0.03,0.033-0.062,0.065-0.093,0.101h0.186c12.258,13.285,29.59,21.813,48.92,22.512v0.053h2.565h0.004h0.004h2.564v-0.053   c19.332-0.695,36.664-9.227,48.92-22.512h0.187c-0.03-0.033-0.062-0.064-0.093-0.101   C132.545,105.537,139.409,89.869,140.032,72.609"/></g><g id="Livello_1_1_"/></svg>